Coordinates
version=1
nRows=14
nColumns=63
inDegrees=yes

Units are S.I. units (second, meters, Newtons, ...)
If the header above contains a line with 'inDegrees', this indicates whether rotational values are in degrees (yes) or radians (no).

endheader
time	pelvis_tilt	pelvis_list	pelvis_rotation	pelvis_tx	pelvis_ty	pelvis_tz	hip_flexion_r	hip_adduction_r	hip_rotation_r	knee_angle_r	knee_angle_r_beta	ankle_angle_r	subtalar_angle_r	mtp_angle_r	hip_flexion_l	hip_adduction_l	hip_rotation_l	knee_angle_l	knee_angle_l_beta	ankle_angle_l	subtalar_angle_l	mtp_angle_l	L5_S1_Flex_Ext	L5_S1_Lat_Bending	L5_S1_axial_rotation	L4_L5_Flex_Ext	L4_L5_Lat_Bending	L4_L5_axial_rotation	L3_L4_Flex_Ext	L3_L4_Lat_Bending	L3_L4_axial_rotation	L2_L3_Flex_Ext	L2_L3_Lat_Bending	L2_L3_axial_rotation	L1_L2_Flex_Ext	L1_L2_Lat_Bending	L1_L2_axial_rotation	L1_T12_Flex_Ext	L1_T12_Lat_Bending	L1_T12_axial_rotation	Abs_r3	Abs_r2	Abs_r1	Abs_t1	Abs_t2	neck_flexion	neck_bending	neck_rotation	arm_flex_r	arm_add_r	arm_rot_r	elbow_flex_r	pro_sup_r	wrist_flex_r	wrist_dev_r	arm_flex_l	arm_add_l	arm_rot_l	elbow_flex_l	pro_sup_l	wrist_flex_l	wrist_dev_l
3.864407	0.929341	3.221257	100.569009	0.264908	0.778706	0.598244	-10.502497	2.709433	6.839032	0.478337	0.008349	25.023532	-9.716358	0.000000	-5.564335	-2.878828	17.411023	3.506712	0.061204	29.411131	0.040263	0.000000	-0.175813	-0.421163	-1.916684	-0.326503	-0.560146	-2.036477	-0.288844	-1.024015	-2.036477	-0.200937	-1.024015	-1.677099	-0.163260	-0.858835	-1.557306	-0.100460	-0.652381	-1.437513	-1.255818	-4.764275	-10.660024	0.000000	0.000000	-4.991318	1.700305	6.453100	-7.646534	-16.253113	-46.250707	136.635125	47.796179	-13.002468	13.237575	-18.232257	-8.233322	-49.689412	135.639685	89.486777	-6.178534	15.260373
3.881356	0.803680	3.526610	100.337158	0.264969	0.778158	0.597200	-10.915141	2.586327	7.333318	0.458399	0.008001	25.308662	-9.998980	0.000000	-6.023508	-2.776988	17.518149	3.541510	0.061811	29.593954	-0.384239	0.000000	-0.165966	-0.416398	-1.863298	-0.308215	-0.553809	-1.979754	-0.272665	-1.012429	-1.979754	-0.189682	-1.012429	-1.630386	-0.154116	-0.849118	-1.513929	-0.094833	-0.645000	-1.397473	-1.185478	-4.710374	-10.363104	0.000000	0.000000	-5.756800	3.809939	5.858010	-7.916686	-15.795812	-46.547042	136.469930	43.743785	-13.244235	12.328341	-17.911325	-8.511483	-48.947006	134.790802	88.731444	-7.159019	12.532015
3.898305	0.688824	3.806238	100.157533	0.264873	0.777560	0.596154	-11.301659	2.470777	7.829883	0.437156	0.007630	25.606187	-10.341783	0.000000	-6.445799	-2.678928	17.586779	3.562144	0.062171	29.817881	-0.698250	0.000000	-0.152264	-0.407720	-1.816581	-0.282770	-0.542268	-1.930117	-0.250155	-0.991332	-1.930117	-0.174023	-0.991332	-1.589508	-0.141393	-0.831424	-1.475972	-0.087004	-0.631559	-1.362436	-1.087609	-4.612216	-10.103279	0.000000	0.000000	-6.432995	5.744422	5.294061	-8.133772	-15.267919	-46.942698	136.304870	40.876952	-13.702863	12.016577	-17.553374	-8.629045	-48.278337	133.752261	88.130511	-7.838254	9.909877
3.915254	0.580452	4.053095	100.029445	0.264634	0.776927	0.595145	-11.654780	2.358544	8.361767	0.414616	0.007236	25.896135	-10.790459	0.000000	-6.809165	-2.578423	17.600806	3.599524	0.062824	30.086910	-0.898595	0.000000	-0.135421	-0.395355	-1.775200	-0.251491	-0.525823	-1.886150	-0.222484	-0.961267	-1.886150	-0.154773	-0.961267	-1.553300	-0.125752	-0.806209	-1.442350	-0.077380	-0.612406	-1.331400	-0.967301	-4.472340	-9.873130	0.000000	0.000000	-6.965721	7.473907	4.782060	-8.274278	-14.639188	-47.453497	136.128309	39.355767	-14.194828	12.183663	-17.166731	-8.601943	-47.595775	132.628015	87.395561	-8.580586	7.513038
3.932203	0.494891	4.264551	99.978039	0.264187	0.776288	0.594204	-11.968715	2.269788	8.635019	0.394551	0.006886	26.237327	-10.979656	0.000000	-7.120903	-2.500409	17.486849	3.609081	0.062990	30.394781	-0.827550	0.000000	-0.115280	-0.375906	-1.742761	-0.214087	-0.499954	-1.851683	-0.189394	-0.913977	-1.851683	-0.131754	-0.913977	-1.524916	-0.107049	-0.766547	-1.415993	-0.065871	-0.582278	-1.307070	-0.823434	-4.252319	-9.692711	0.000000	0.000000	-7.368900	8.930163	4.348240	-8.327927	-13.941851	-48.036479	135.966544	38.846742	-14.830985	12.850992	-16.747196	-8.416988	-46.981962	131.413049	86.825115	-8.974910	5.313997
3.949153	0.414940	4.438555	99.993058	0.263608	0.775663	0.593403	-12.239997	2.188709	8.820406	0.376675	0.006574	26.578460	-11.131223	0.000000	-7.353590	-2.424305	17.249849	3.654023	0.063775	30.746051	-0.521857	0.000000	-0.095014	-0.353216	-1.718587	-0.176451	-0.469777	-1.825999	-0.156099	-0.858809	-1.825999	-0.108592	-0.858809	-1.503764	-0.088230	-0.720278	-1.396352	-0.054291	-0.547131	-1.288941	-0.678677	-3.995648	-9.558268	0.000000	0.000000	-7.582611	10.177780	3.949432	-8.257140	-13.154668	-48.691385	135.780882	39.329671	-15.424222	13.919653	-16.329747	-8.175082	-46.358746	130.238168	86.343485	-9.427296	3.594043
3.966102	0.349410	4.570408	100.089317	0.262879	0.775063	0.592769	-12.460471	2.126525	8.763407	0.362338	0.006324	26.946371	-11.051272	0.000000	-7.516153	-2.360098	16.999883	3.691361	0.064426	31.103028	-0.078266	0.000000	-0.074943	-0.326087	-1.710100	-0.139176	-0.433696	-1.816981	-0.123124	-0.792848	-1.816981	-0.085652	-0.792848	-1.496337	-0.069592	-0.664956	-1.389456	-0.042822	-0.505109	-1.282575	-0.535309	-3.688760	-9.511062	0.000000	0.000000	-7.631843	11.232025	3.607621	-8.052596	-12.303811	-49.356171	135.602384	41.484628	-16.006839	15.419891	-15.960794	-7.915314	-45.770212	129.108942	85.929433	-9.781722	2.156625
3.983051	0.303486	4.656409	100.253031	0.262002	0.774489	0.592362	-12.620055	2.084850	8.633497	0.350927	0.006125	27.283147	-10.972019	0.000000	-7.582840	-2.309371	16.656905	3.767124	0.065749	31.506148	0.599516	0.000000	-0.056627	-0.293825	-1.713324	-0.105163	-0.390787	-1.820407	-0.093033	-0.714407	-1.820407	-0.064720	-0.714407	-1.499159	-0.052584	-0.599168	-1.392076	-0.032357	-0.455135	-1.284993	-0.404484	-3.323809	-9.528996	0.000000	0.000000	-7.523463	12.120169	3.247830	-7.719273	-11.402559	-50.075911	135.417771	44.260152	-16.557269	17.300175	-15.647550	-7.678224	-45.198049	128.073555	85.568322	-10.075091	1.094986
4.000000	0.270696	4.701843	100.477766	0.261025	0.773959	0.592190	-12.724664	2.060332	8.461219	0.341758	0.005965	27.565232	-10.934029	0.000000	-7.558073	-2.267388	16.206171	3.885624	0.067817	31.955540	1.508946	0.000000	-0.042308	-0.258386	-1.729203	-0.078570	-0.343654	-1.837278	-0.069508	-0.628240	-1.837278	-0.048354	-0.628240	-1.513053	-0.039287	-0.526901	-1.404978	-0.024175	-0.400240	-1.296902	-0.302202	-2.922916	-9.617310	0.000000	0.000000	-7.264643	12.947893	2.853006	-7.270703	-10.457586	-50.834439	135.230564	47.617826	-17.091006	19.535461	-15.408534	-7.512732	-44.692681	127.214508	85.298932	-10.278657	0.593230
4.016949	0.249850	4.705138	100.754973	0.259962	0.773483	0.592281	-12.768937	2.046423	8.112277	0.337273	0.005887	27.837420	-10.721772	0.000000	-7.440848	-2.225814	15.762184	4.046163	0.070619	32.427601	2.496183	0.000000	-0.032775	-0.219688	-1.758228	-0.060867	-0.292185	-1.868117	-0.053847	-0.534150	-1.868117	-0.037459	-0.534150	-1.538449	-0.030435	-0.447988	-1.428560	-0.018728	-0.340297	-1.318671	-0.234111	-2.485157	-9.778734	0.000000	0.000000	-6.896599	13.757528	2.431999	-6.716652	-9.485832	-51.614331	135.057342	51.535425	-17.662502	22.083541	-15.236574	-7.424631	-44.314472	126.586399	85.143756	-10.329194	0.843403
4.033898	0.246093	4.673954	101.073035	0.258795	0.773075	0.592631	-12.759839	2.046986	7.724003	0.335228	0.005851	28.034344	-10.535799	0.000000	-7.244510	-2.189983	15.328338	4.238391	0.073974	32.909486	3.522010	0.000000	-0.029452	-0.176110	-1.796331	-0.054696	-0.234227	-1.908602	-0.048387	-0.428195	-1.908602	-0.033661	-0.428195	-1.571790	-0.027349	-0.359124	-1.459519	-0.016829	-0.272795	-1.347248	-0.210374	-1.992196	-9.990656	0.000000	0.000000	-6.441283	14.535659	1.957272	-6.105056	-8.524255	-52.409784	134.863885	54.975087	-18.159492	24.734440	-15.134750	-7.424429	-44.031991	126.217850	85.141938	-10.371570	1.894885
4.050847	0.267057	4.612930	101.414163	0.257531	0.772724	0.593228	-12.701057	2.065871	7.306909	0.335562	0.005857	28.143266	-10.368555	0.000000	-6.974099	-2.166505	14.865813	4.466099	0.077948	33.411294	4.603981	0.000000	-0.032885	-0.126235	-1.840435	-0.061071	-0.167892	-1.955462	-0.054027	-0.306927	-1.955462	-0.037584	-0.306927	-1.610380	-0.030537	-0.257418	-1.495353	-0.018790	-0.195538	-1.380326	-0.234894	-1.427994	-10.235945	0.000000	0.000000	-5.909621	15.278661	1.429721	-5.488985	-7.618307	-53.188456	134.634489	56.984873	-18.503220	27.255709	-15.091112	-7.507168	-43.873604	126.171403	85.598781	-10.493967	4.050026
4.067797	0.310251	4.530865	101.753146	0.256217	0.772422	0.594036	-12.603654	2.098731	6.876922	0.338891	0.005915	28.155542	-10.213772	0.000000	-6.651107	-2.153425	14.377297	4.718028	0.082345	33.923390	5.698058	0.000000	-0.043362	-0.071095	-1.884327	-0.080527	-0.094556	-2.002097	-0.071239	-0.172860	-2.002097	-0.049558	-0.172860	-1.648786	-0.040266	-0.144977	-1.531015	-0.024777	-0.110126	-1.413245	-0.309730	-0.804240	-10.480060	0.000000	0.000000	-5.308794	15.993249	0.822850	-4.946415	-6.791804	-53.931211	134.410597	57.586677	-18.638982	29.437282	-15.100631	-7.674040	-43.847164	126.484358	86.948091	-11.111844	7.579077
4.084746	0.356877	4.444530	102.095383	0.254882	0.772171	0.594982	-12.496759	2.133486	6.375269	0.344867	0.006019	28.094227	-9.993750	0.000000	-6.306878	-2.137263	13.909540	4.985398	0.087012	34.422523	6.744045	0.000000	-0.061577	-0.014724	-1.930489	-0.114355	-0.019583	-2.051145	-0.101165	-0.035800	-2.051145	-0.070376	-0.035800	-1.689178	-0.057180	-0.030025	-1.568522	-0.035185	-0.022808	-1.447867	-0.439838	-0.166562	-10.736801	0.000000	0.000000	-4.653284	16.685406	0.111285	-4.530963	-6.032822	-54.614747	134.249716	57.677549	-18.412042	31.178343	-15.206383	-7.979043	-43.770420	127.137492	88.153688	-12.671336	11.264125
